<svg xmlns="http://www.w3.org/2000/svg" version="1.1" xmlns:xlink="http://www.w3.org/1999/xlink" xmlns:svgjs="http://svgjs.com/svgjs" width="1440" height="800" preserveAspectRatio="none" viewBox="0 0 1440 800"><g mask="url(&quot;#SvgjsMask1067&quot;)" fill="none"><rect width="1440" height="800" x="0" y="0" fill="rgba(0, 94, 71, 1)"></rect><path d="M0,517.525C112.592,504.559,232.318,570.151,333.12,518.345C435.989,465.476,502.903,355.123,533.187,243.498C561.421,139.43,494.763,36.936,492.976,-70.879C490.821,-200.901,587.975,-340.16,521.661,-452.021C456.375,-562.149,304.552,-590.311,177.211,-603.525C62.019,-615.478,-48.5,-571.364,-153.29,-522.058C-245.534,-478.655,-316.33,-408.564,-389.031,-337.098C-468.173,-259.3,-581.401,-195.711,-597.042,-85.842C-612.682,24.02,-499.943,107.365,-467.41,213.459C-427.9,342.306,-499.337,527.71,-386.368,601.2C-273.626,674.543,-133.616,532.912,0,517.525" fill="#004a38"></path><path d="M1440 1147.328C1513.387 1146.077 1595.479 1177.555 1655.392 1135.156 1715.2440000000001 1092.801 1719.726 1007.1610000000001 1738.301 936.23 1754.013 876.233 1763.442 816.153 1755.022 754.707 1746.559 692.943 1722.539 636.56 1689.956 583.412 1652.075 521.621 1620.844 441.33 1551.011 421.93 1481.141 402.52 1418.454 469.261 1348.556 488.571 1277.094 508.313 1193.965 490.358 1136 536.582 1074.882 585.321 1041.911 663.793 1031.654 741.289 1021.4549999999999 818.342 1046.334 894.3389999999999 1079.334 964.711 1112.077 1034.534 1151.033 1107.746 1219.835 1142.583 1286.6779999999999 1176.4279999999999 1365.088 1148.605 1440 1147.328" fill="#007256"></path></g><defs><mask id="SvgjsMask1067"><rect width="1440" height="800" fill="#ffffff"></rect></mask></defs></svg>